<svg xmlns="http://www.w3.org/2000/svg" aria-hidden="true" style="position:absolute;width:0;height:0;overflow:hidden"><defs><symbol id="icon-arrow" viewBox="0 0 32 32"><path fill="#fff" d="M25 8v13a.997.997 0 0 1-1 1 1 1 0 0 1-1-1V10.414L8.708 24.708a1 1 0 1 1-1.414-1.414L21.588 9.001H11.002a.997.997 0 0 1-1-1 .997.997 0 0 1 1-1h13a.997.997 0 0 1 1 1z" style="fill:var(--color1, #fff)"/></symbol><symbol id="icon-cake" viewBox="0 0 32 32"><path fill="#fff" d="M14.023 1.219q-.058 0-.117.004a3.05 3.05 0 0 0-2.816 2.193c-.3 1.067-.029 2.249 1.356 3.119a4.13 4.13 0 0 0-3.164 3.039l-7.517 7.059 21.547-3.043a6.8 6.8 0 0 1-.483-2.367c-.773.218-1.59.114-2.23-.303-.78-.507-1.207-1.525-.947-2.686-.688-.242-1.27-.696-1.809-1.26a5 5 0 0 1-.555.342 7 7 0 0 1-1.025.439 4.2 4.2 0 0 0-1.19-.883 6.3 6.3 0 0 0 1.666-.588c.354-.188.608-.406.666-.484l.439-.59.477.563c.741.878 1.355 1.361 2.15 1.471l.764.106-.309.707c-.459 1.051-.17 1.572.309 1.883s1.26.33 1.871-.127l1.107-.83-.178 1.373c-.264 2.03.711 4.059 1.99 4.867.639.404 1.316.529 2.049.283s1.558-.901 2.346-2.213c1.355-2.257-.945-4.873-2.961-4.164l-.797.281.02-.846c.057-2.332-2.146-4.239-4.647-3.689l-.527.115-.158-.516c-.249-.814-.762-1.356-1.324-1.578s-1.178-.169-1.822.352l-.498.402-.355-.533c-.834-1.25-2.111-1.908-3.326-1.898zm-.755 6.4q.147 0 .289.014a1.493 1.493 0 1 0 2.117 1.236 2.94 2.94 0 0 1 .324 2.774c-1.662 1.192-3.323 1.252-4.984.803a2.93 2.93 0 0 1-.684-1.889 2.93 2.93 0 0 1 2.938-2.937zm10.615 7.072L1.248 17.884v1.037l23.402-3.303a5.5 5.5 0 0 1-.768-.928zm6.072 1.024a4.6 4.6 0 0 1-1.205.781l-.047 10.57 1.252-.127zm-3.785.869-24.922 3.52v3.297l2.215-1.232.285.164c1.03.586 1.778.684 2.51.488s1.496-.743 2.367-1.617l.242-.242.33.094c1.501.425 2.378.594 3.066.477s1.328-.525 2.389-1.486l.392-.356.391.356c.485.439.706.481.779.478s.203-.078.496-.272.741-.453 1.346-.478c.518-.022 1.128.127 1.873.48.523-.473.938-.787 1.484-.85.537-.062.988.141 1.557.443.42-.335.844-.524 1.252-.572.516-.061.951.07 1.312.172s.657.18.957.16c.291-.019.619-.118 1.078-.469l.01-2.354a3.5 3.5 0 0 1-1.41-.201zm-1.721 3.846-.09.006c-.234.028-.495.128-.895.529l-.307.309-.385-.207c-.744-.401-1.072-.52-1.227-.502s-.462.206-1.119.814l-.307.283-.367-.197c-.815-.439-1.326-.537-1.648-.523s-.5.118-.75.283c-.25.166-.578.447-1.096.467-.396.015-.784-.142-1.207-.453-.927.797-1.701 1.291-2.592 1.443-.937.161-1.913-.044-3.262-.418-.849.814-1.686 1.43-2.639 1.685-.96.258-1.997.109-3.094-.447l-2.219 1.234v1.106c1.991-.908 3.966-.877 5.99-.344.684-.938 1.539-1.569 2.613-1.736 1.069-.167 2.295.111 3.783.731.274-.589.61-.996 1.033-1.229.55-.302 1.125-.258 1.615-.19.98.137 1.709.412 2.699-.402l.266-.219.32.127c1.46.576 3.163.703 4.602-.469l.363-.295.367.289c.954.749 1.851.704 2.656.119l.008-1.719a2.8 2.8 0 0 1-.996.268c-.54.036-.99-.1-1.35-.201-.315-.089-.557-.148-.77-.143zm.108 2.851c-1.649 1.129-3.562 1.027-5.115.488-1.262.855-2.529.571-3.318.461-.425-.059-.688-.055-.891.057s-.462.388-.721 1.154l-.207.613-.59-.268c-1.662-.757-2.844-1.004-3.684-.873s-1.433.596-2.051 1.564l-.236.371-.422-.125c-2.191-.648-4.041-.694-6.074.422v2.711l.643-.065 25.645-2.607.016-3.653c-.94.379-2.02.34-2.994-.252z" style="fill:var(--color1, #fff)"/></symbol><symbol id="icon-circle" viewBox="0 0 32 32"><path fill="none" stroke="#fff" stroke-width="4" d="M16 2c7.732 0 14 6.268 14 14s-6.268 14-14 14S2 23.732 2 16 8.268 2 16 2z" style="stroke:var(--color1, #fff)"/><path fill="#fff" d="M24 16a8 8 0 1 1-16 0 8 8 0 0 1 16 0" style="fill:var(--color1, #fff)"/></symbol><symbol id="icon-close" viewBox="0 0 32 32"><path fill="#fff" d="m8.532 25.333-1.867-1.867 7.467-7.467-7.467-7.467 1.867-1.867 7.467 7.467 7.467-7.467 1.867 1.867-7.467 7.467 7.467 7.467-1.867 1.867-7.467-7.467z" style="fill:var(--color1, #fff)"/></symbol><symbol id="icon-koala" viewBox="0 0 32 32"><path fill="#fff" d="M26.206 1.422c-1.525 4.547-3.419 9.084-5.462 13.609.531-.188 1.1-.375 1.675-.463.638-.094 1.325-.056 1.9.325 1.056-2.769 2.113-5.5 3.05-7.85.975-2.436 1.788-4.394 2.388-5.622zm-6.556.145c-1.106.012-1.769.408-2.212.979a2.3 2.3 0 0 0-.244.377q.414.151.8.346c.519-.418 1.038-.643 1.544-.672.044 0 .081-.006.125-.006a1.9 1.9 0 0 1 1.475.744c.656.841.738 2.139.044 3.151a6 6 0 0 1 .487 1.85c.575-.15.913-.5 1.15-1.025.281-.625.338-1.499.156-2.381a5.3 5.3 0 0 0-.794-1.894c.469.076.781.237 1.131.377-.731-.89-1.375-1.181-2.362-1.531a2.6 2.6 0 0 0-1.3-.317zM6.762 3.428q-.064-.002-.119.006c-.517.027-1.077.216-1.696.648q-.259.18-.473.411c-.792.677-1.46 1.526-2.232 2.225.453-.138.859-.375 1.32-.514-.29 1.026-.28 2.145-.471 3.201.252-.356.414-.762.678-1.119-.019 1.15.516 2.244.781 3.369.096-.475.054-.95.239-1.431.304.394.649.712 1.006.919.643.375 1.286.444 2.043.006l.1-.05h.006a5 5 0 0 1-.338-1.212c-.388-.219-.65-.6-.875-1.006-.325-.569-.554-1.25-.592-1.919-.025-.331 0-.662.111-.979.119-.317.344-.624.669-.803q.375-.2.825-.19c.375.007.794.118 1.263.319.119-.155.238-.306.369-.453-.481-.599-1.125-1.106-1.838-1.312a2.7 2.7 0 0 0-.775-.112v-.003zm7.582.094c-.2 0-.406.006-.606.017-1.188.082-2.512.899-3.506 2.032-.988 1.135-1.613 2.56-1.569 3.666.081 1.912 1.113 2.906 2.475 3.506s3.056.694 4.106.562c1.044-.125 2.519-.619 3.625-1.45 1.106-.838 1.838-1.931 1.681-3.444-.169-1.6-1.044-2.848-2.3-3.701-1.1-.746-2.494-1.169-3.906-1.189zm5.362.193h-.1c-.15.009-.338.061-.562.186.55.394 1.038.866 1.444 1.406.106-.484 0-.986-.231-1.279-.15-.195-.319-.301-.55-.314zM17.469 5.9a.997.997 0 0 1 1 1 .997.997 0 0 1-1 1 .997.997 0 0 1-1-1 .997.997 0 0 1 1-1m-9.788.218a.5.5 0 0 0-.225.043c-.069.035-.106.079-.15.195a1.4 1.4 0 0 0-.056.537c.031.4.181.906.381 1.313a6.5 6.5 0 0 1 .744-1.944c-.313-.113-.538-.146-.694-.144m5.238.957a.997.997 0 0 1 1 1 .997.997 0 0 1-1 1 .997.997 0 0 1-1-1 .997.997 0 0 1 1-1m2.806.844c.556-.006 1.1.556 1.431 1.025.425.594.481 2.144.481 2.144.188.938-2.169 1.644-2.569.812 0 0-.7-1.406-.6-2.144.094-.7.4-1.65 1.081-1.813q.082-.018.175-.025zm-5.219 5.769c-2.55 1.662-4.144 3.931-4.967 6.194-.91 2.494-.862 4.975-.196 6.512.659 1.531 1.919 2.519 3.444 3.106 1.525.594 3.306.756 4.875.606 1.294-.125 2.269-.819 3.225-1.725.95-.9 1.838-2 2.962-2.775l.069-.044.075-.025c.956-.319 1.538-.825 1.731-1.319s.112-1.075-.588-1.831c.075.081 0-.006-.206-.012a3.5 3.5 0 0 0-.831.075c-.588.112-1.281.356-1.756.644-.488 1.344-1.525 2.738-3.225 3.969l-.65-.912c3.5-2.519 3.575-5.388 2.463-6.719-.556-.663-1.406-1.006-2.506-.775s-2.456 1.075-3.825 2.912l-.9-.675c1.481-1.981 3.044-3.031 4.5-3.331a4 4 0 0 1 1.056-.087c1.025.056 1.925.512 2.531 1.244.138.163.262.344.369.531 1.95-.056 3.906-.038 4.912-.65.75-.456 1.138-.988 1.231-1.431.1-.437-.012-.837-.5-1.269-.294-.25-.669-.306-1.219-.225s-1.213.319-1.869.55l-.187.069-.188-.069c-2.369-.831-2.919-1.588-3.562-2.056l-.113-.019c-.45.131-.881.219-1.281.269-1.244.15-3.069.063-4.694-.65-.062-.025-.119-.056-.181-.081zm11.844 6.387c-1.119.281-2.388.269-3.625.281.006.369.019.744 0 1.112 0 .069-.006.138-.006.213a7 7 0 0 1 1.169-.331 4.7 4.7 0 0 1 1.106-.094c.281.019.569.044.825.238.175-.469.35-.931.531-1.419m-2.675 7.119c-.65.594-1.294 1.319-2.019 2-.544.512-1.138 1.006-1.825 1.381a94 94 0 0 0 2.544-.013 173 173 0 0 0 1.3-3.369z" style="fill:var(--color1, #fff)"/></symbol><symbol id="icon-menu" viewBox="0 0 32 32"><path fill="#fff" d="M4 24v-2.667h24V24zm0-6.667v-2.667h24v2.667zm0-6.666V8h24v2.667z" style="fill:var(--color1, #fff)"/></symbol><symbol id="icon-minus" viewBox="0 0 32 32"><path fill="#fff" d="M28 16a.997.997 0 0 1-1 1H5a.997.997 0 0 1-1-1 .997.997 0 0 1 1-1h22a.997.997 0 0 1 1 1" style="fill:var(--color1, #fff)"/></symbol><symbol id="icon-playstore" viewBox="0 0 32 32"><path fill="#ea4335" d="M15.066 15.282 2.003 29.341l.002.009C2.406 30.877 3.78 32 5.412 32c.653 0 1.265-.179 1.79-.493l.042-.025 14.703-8.603z" style="fill:var(--color2, #ea4335)"/><path fill="#fbbc04" d="m28.28 12.888-.012-.009-6.348-3.731-7.151 6.453 7.177 7.276 6.314-3.694a3.59 3.59 0 0 0 1.859-3.154 3.58 3.58 0 0 0-1.838-3.142z" style="fill:var(--color3, #fbbc04)"/><path fill="#4285f4" d="M2.003 2.658a3.5 3.5 0 0 0-.12.921v24.843q.001.48.121.919l13.51-13.699z" style="fill:var(--color4, #4285f4)"/><path fill="#34a853" d="m15.163 16 6.76-6.854L7.237.512A3.5 3.5 0 0 0 5.414.001c-1.632 0-3.008 1.126-3.409 2.654l-.001.004 13.159 13.342z" style="fill:var(--color5, #34a853)"/></symbol><symbol id="icon-plus" viewBox="0 0 32 32"><path fill="#fff" d="M28 16a.997.997 0 0 1-1 1H17v10a.997.997 0 0 1-1 1 .997.997 0 0 1-1-1V17H5a.997.997 0 0 1-1-1 .997.997 0 0 1 1-1h10V5a.997.997 0 0 1 1-1 .997.997 0 0 1 1 1v10h10a.997.997 0 0 1 1 1" style="fill:var(--color1, #fff)"/></symbol><symbol id="icon-snowflake" viewBox="0 0 32 32"><path fill="#fff" d="M15.941.967C7.722.967 1.025 7.662 1.025 15.881s6.697 14.853 14.916 14.853S30.855 24.1 30.855 15.881 24.16.967 15.941.967m0 1.146c7.588 0 13.705 6.18 13.705 13.768s-6.117 13.707-13.705 13.707S2.234 23.469 2.234 15.881 8.353 2.113 15.941 2.113m-.002 1.205c-6.937 0-12.547 5.61-12.547 12.547s5.61 12.547 12.547 12.547 12.547-5.61 12.547-12.547-5.61-12.547-12.547-12.547m-.052 1.034.77 3.92 3.188-1.318-2.881 2.881.389 1.98-.781.209.492 1.834 1.832-.492-.203-.756 1.959-.67 1.051-3.926.451 3.41 3.77-1.289-3.02 2.635 2.648 2.062L21.7 13.82l-1.516 1.322-.627-.627-1.342 1.344 1.342 1.342.576-.576 1.543 1.348 3.918-1.049-2.723 2.092 3.014 2.629-3.811-1.303-.463 3.324-1.051-3.844-1.889-.644.223-.832-1.832-.492-.492 1.834.781.209-.389 1.977 2.881 2.879-3.188-1.316-.77 3.922-.773-3.94-3.1 1.258 2.793-2.818-.383-1.949.822-.221-.492-1.834-1.834.492.227.846-1.83.627-1.049 3.838-.461-3.322-3.807 1.303L9.01 19.01l-2.725-2.094 3.922 1.051 1.502-1.311.547.547 1.342-1.342-1.342-1.344-.6.6-1.473-1.285-3.857 1.014 2.654-2.064-3.022-2.637 3.767 1.289.449-3.408 1.051 3.922 1.899.648-.207.772 1.834.492.492-1.834-.824-.221.385-1.953-2.793-2.82 3.1 1.258.773-3.936z" style="fill:var(--color1, #fff)"/></symbol><symbol id="icon-wings" viewBox="0 0 32 32"><path fill="#fff" d="M30.438 2.319C24.775 3.327 18.25 5.955 12.969 8.75c-2.781 1.475-5.219 2.988-7.007 4.325-.894.675-1.627 1.3-2.154 1.838-.527.544-.836 1.019-.916 1.269-.565 1.794-.214 3.606.108 5.294.597 3.15-.202 5.556-1.436 7.894 1.577-.356 2.835-1.237 3.563-2.937.529-1.238.571-2.313.714-3.6s.403-2.763 1.402-4.575l.013-.025.013-.025c.55-.788 1.637-1.388 3.125-2.088 1.481-.7 3.35-1.437 5.375-2.194 3.988-1.487 8.575-3.044 11.881-4.456 1.25-1.881 2.125-4.64 2.788-7.15zM27 10.956c-3.231 1.312-7.288 2.694-10.844 4.019-2.012.75-3.862 1.481-5.288 2.156-1.412.669-2.406 1.35-2.662 1.7a10 10 0 0 0-.875 2.081c5.213-.406 12.206-1.988 16.956-4.162 1.712-1.856 2.306-3.731 2.712-5.794zm-3.625 7.425c-4.937 2.012-11.375 3.331-16.3 3.662a12 12 0 0 0-.125.912c-.025.219-.044.444-.069.662 4.525.469 8.519.25 12.887-.406 2.038-1.406 3.113-3.1 3.606-4.831zm-4.9 6.138c-3.894.506-7.6.638-11.725.213q-.066.42-.169.85c2.244 1.2 6.131 1.612 8.794 1.537 1.888-.775 2.594-1.55 3.1-2.6m-12.239 2.15c-.072.131-.196.419-.263.556.877 1.263 3.046 2.013 5.527 2.456 1.325-.5 1.769-.969 2.281-1.438-2.481-.069-5.419-.481-7.544-1.575z" style="fill:var(--color1, #fff)"/></symbol><symbol id="icon-x" viewBox="0 0 32 32"><path fill="#fff" d="m6.023 1.256 1.926 2.547 8.142 8.142 7.365-7.365 2.514-3.324-9.975 6.756zm22.241 2.465-7.098 4.803-5.072 5.074-5.035-5.035-7.146-4.836 5.053 7.467 4.766 4.766-.412.414-4.676 4.676-4.795 7.088 7.547-5.106 4.703-4.705 4.762 4.762 7.471 5.057L23.496 21l-5.033-5.033.412-.414 4.285-4.285 5.106-7.545zM1.389 5.889l6.758 9.975-6.758 9.973 3.342-2.527 7.348-7.348L3.927 7.81zm29.414.197L27.477 8.6l-7.363 7.365 8.154 8.154 2.533 1.916-6.756-9.974zM16.098 19.978l-7.356 7.356-2.521 3.334 9.975-6.756 9.973 6.756-1.918-2.537-8.152-8.152z" style="fill:var(--color1, #fff)"/></symbol></defs></svg>